<svg width="16" height="16" viewBox="0 0 16 16" fill="none" xmlns="http://www.w3.org/2000/svg">
<path d="M6.66663 1.33337V2.66671" stroke="black" stroke-width="1.33333" stroke-linecap="round" stroke-linejoin="round"/>
<path d="M9.33337 1.33337V2.66671" stroke="black" stroke-width="1.33333" stroke-linecap="round" stroke-linejoin="round"/>
<path d="M10.6667 5.33337C10.8435 5.33337 11.013 5.40361 11.1381 5.52864C11.2631 5.65366 11.3333 5.82323 11.3333 6.00004V11.3334C11.3333 12.0406 11.0524 12.7189 10.5523 13.219C10.0522 13.7191 9.37391 14 8.66667 14H4.66667C3.95942 14 3.28115 13.7191 2.78105 13.219C2.28095 12.7189 2 12.0406 2 11.3334V6.00004C2 5.82323 2.07024 5.65366 2.19526 5.52864C2.32029 5.40361 2.48986 5.33337 2.66667 5.33337H12C12.7072 5.33337 13.3855 5.61433 13.8856 6.11442C14.3857 6.61452 14.6667 7.2928 14.6667 8.00004C14.6667 8.70728 14.3857 9.38556 13.8856 9.88566C13.3855 10.3858 12.7072 10.6667 12 10.6667H11.3333" stroke="black" stroke-width="1.33333" stroke-linecap="round" stroke-linejoin="round"/>
<path d="M4 1.33337V2.66671" stroke="black" stroke-width="1.33333" stroke-linecap="round" stroke-linejoin="round"/>
</svg>
