<svg width="16" height="16" viewBox="0 0 16 16" fill="none" xmlns="http://www.w3.org/2000/svg">
<path d="M4.66663 7.33337L7.38663 14.2334C7.43786 14.3536 7.52331 14.4562 7.63236 14.5283C7.74141 14.6003 7.86924 14.6388 7.99996 14.6388C8.13068 14.6388 8.25851 14.6003 8.36756 14.5283C8.47661 14.4562 8.56206 14.3536 8.61329 14.2334L11.3333 7.33337" stroke="black" stroke-width="1.33333" stroke-linecap="round" stroke-linejoin="round"/>
<path d="M11.3333 4.66671C11.3333 3.78265 10.9821 2.93481 10.357 2.30968C9.73186 1.68456 8.88401 1.33337 7.99996 1.33337C7.1159 1.33337 6.26806 1.68456 5.64294 2.30968C5.01782 2.93481 4.66663 3.78265 4.66663 4.66671" stroke="black" stroke-width="1.33333" stroke-linecap="round" stroke-linejoin="round"/>
<path d="M11.3334 4.66663C11.687 4.66663 12.0261 4.8071 12.2762 5.05715C12.5262 5.3072 12.6667 5.64634 12.6667 5.99996C12.6667 6.35358 12.5262 6.69272 12.2762 6.94277C12.0261 7.19282 11.687 7.33329 11.3334 7.33329H4.66671C4.31309 7.33329 3.97395 7.19282 3.7239 6.94277C3.47385 6.69272 3.33337 6.35358 3.33337 5.99996C3.33337 5.64634 3.47385 5.3072 3.7239 5.05715C3.97395 4.8071 4.31309 4.66663 4.66671 4.66663" stroke="black" stroke-width="1.33333" stroke-linecap="round" stroke-linejoin="round"/>
</svg>
