<svg width="16" height="16" viewBox="0 0 16 16" fill="none" xmlns="http://www.w3.org/2000/svg">
<g clip-path="url(#clip0_421_26)">
<path d="M10.2666 10.42C9.26888 10.7401 8.27906 10.7478 7.44286 10.4421C6.60666 10.1363 5.96825 9.53321 5.62157 8.7215C5.2749 7.90979 5.23827 6.93236 5.51709 5.93305C5.79591 4.93375 6.37544 3.96536 7.1704 3.1704C7.96536 2.37544 8.93375 1.79591 9.93305 1.51709C10.9324 1.23827 11.9098 1.2749 12.7215 1.62157C13.5332 1.96825 14.1363 2.60666 14.4421 3.44287C14.7478 4.27907 14.7401 5.26888 14.42 6.26664C13.9568 6.00241 13.3695 5.93669 12.7569 6.08052C12.1443 6.22435 11.5438 6.56897 11.0564 7.0564C10.569 7.54383 10.2244 8.14434 10.0805 8.75692C9.93669 9.3695 10.0024 9.95678 10.2666 10.42Z" stroke="black" stroke-width="1.33333" stroke-linecap="round" stroke-linejoin="round"/>
<path d="M5.52663 8.47339L3.7933 10.2067C3.5816 10.0901 3.34708 10.0209 3.10598 10.0039C2.86488 9.98699 2.62298 10.0227 2.39705 10.1085C2.17112 10.1944 1.96656 10.3283 1.79756 10.5011C1.62856 10.6739 1.49917 10.8814 1.41834 11.1092C1.33752 11.3369 1.3072 11.5796 1.32949 11.8202C1.35178 12.0609 1.42615 12.2938 1.54744 12.5029C1.66873 12.7119 1.83403 12.8921 2.0319 13.0309C2.22976 13.1697 2.45544 13.2638 2.6933 13.3067C2.73997 13.5415 2.83666 13.7634 2.9768 13.9575C3.11693 14.1515 3.29721 14.3131 3.50539 14.4313C3.71356 14.5494 3.94473 14.6213 4.18319 14.6421C4.42164 14.6629 4.66177 14.6321 4.88725 14.5518C5.11273 14.4714 5.31826 14.3435 5.48986 14.1766C5.66147 14.0098 5.79512 13.8079 5.88172 13.5848C5.96832 13.3616 6.00585 13.1224 5.99174 12.8835C5.97763 12.6446 5.91222 12.4115 5.79996 12.2001L7.52663 10.4734" stroke="black" stroke-width="1.33333" stroke-linecap="round" stroke-linejoin="round"/>
</g>
<defs>
<clipPath id="clip0_421_26">
<rect width="16" height="16" fill="white"/>
</clipPath>
</defs>
</svg>
