<svg width="16" height="16" viewBox="0 0 16 16" fill="none" xmlns="http://www.w3.org/2000/svg">
<path d="M1.57996 7.48203L7.16129 2.96403C7.39862 2.772 7.69467 2.66724 7.99996 2.66724C8.30525 2.66724 8.60129 2.772 8.83862 2.96403L14.4193 7.48203" stroke="black" stroke-width="1.33333" stroke-linecap="round" stroke-linejoin="round"/>
<path d="M14 10C14.1768 10 14.3464 10.0702 14.4714 10.1953C14.5964 10.3203 14.6667 10.4899 14.6667 10.6667V12C14.6667 12.1768 14.5964 12.3464 14.4714 12.4714C14.3464 12.5964 14.1768 12.6667 14 12.6667H10.5" stroke="black" stroke-width="1.33333" stroke-linecap="round" stroke-linejoin="round"/>
<path d="M2.00004 10C1.82323 10 1.65366 10.0702 1.52864 10.1953C1.40361 10.3203 1.33337 10.4899 1.33337 10.6667V12C1.33337 12.1768 1.40361 12.3464 1.52864 12.4714C1.65366 12.5964 1.82323 12.6667 2.00004 12.6667H8.00004" stroke="black" stroke-width="1.33333" stroke-linecap="round" stroke-linejoin="round"/>
<path d="M4.44666 10L8.53332 13.0667C8.6734 13.1717 8.8328 13.2482 9.00241 13.2916C9.17203 13.3351 9.34855 13.3447 9.52188 13.3199C9.69522 13.2952 9.86198 13.2365 10.0126 13.1473C10.1633 13.0581 10.2949 12.9401 10.4 12.8L12.5 10" stroke="black" stroke-width="1.33333" stroke-linecap="round" stroke-linejoin="round"/>
<path d="M14 7.33337H2.00004C1.63185 7.33337 1.33337 7.63185 1.33337 8.00004V9.33337C1.33337 9.70156 1.63185 10 2.00004 10H14C14.3682 10 14.6667 9.70156 14.6667 9.33337V8.00004C14.6667 7.63185 14.3682 7.33337 14 7.33337Z" stroke="black" stroke-width="1.33333" stroke-linecap="round" stroke-linejoin="round"/>
</svg>
